# xmcd CD database file
#
# Track frame offsets:
#	150
#	19282
#	44295
#	61705
#	80902
#	104315
#	120325
#	166105
#	198565
#	225387
#	246685
#
# Disc length: 3683 seconds
#
# Revision: 2
# Processed by: cddbd v1.5.1PL2 Copyright (c) Steve Scherf et al.
# Submitted via: CDex 1.51
#
DISCID=8c0e610b
DTITLE=Chris Wilson - Spiderman
DYEAR=2000
DGENRE=Blues
TTITLE0=Go Go Gaugin
TTITLE1=Rolling and Tumbling
TTITLE2=Spiderman
TTITLE3=She's Tough
TTITLE4=Nobody Knows You When You're Down and Out
TTITLE5=La Cucaracha
TTITLE6=When I was a Cowboy
TTITLE7=Walking the Dog
TTITLE8=Love in Vain
TTITLE9=Tiger Man
TTITLE10=Walking the Dog (ac)
EXTD=YEAR: 2000
EXTT0=
EXTT1=
EXTT2=
EXTT3=
EXTT4=
EXTT5=
EXTT6=
EXTT7=
EXTT8=
EXTT9=
EXTT10=
PLAYORDER=
